<?xml version="1.0" standalone="no"?>
<!DOCTYPE svg PUBLIC "-//W3C//DTD SVG 20010904//EN"
 "http://www.w3.org/TR/2001/REC-SVG-20010904/DTD/svg10.dtd">
<svg version="1.0" xmlns="http://www.w3.org/2000/svg"
 width="700.000000pt" height="700.000000pt" viewBox="0 0 700.000000 700.000000"
 preserveAspectRatio="xMidYMid meet">
<metadata>
Created by potrace 1.14, written by Peter Selinger 2001-2017
</metadata>
<g transform="translate(0.000000,700.000000) scale(0.100000,-0.100000)"
fill="#000000" stroke="none">
<path d="M1010 5347 c-3 -3 -25 -8 -50 -10 -204 -24 -438 -178 -558 -366 -89
-139 -134 -294 -133 -455 1 -110 4 -134 27 -216 46 -168 156 -334 294 -442 95
-76 256 -146 375 -164 73 -11 232 -8 301 6 195 40 413 181 510 331 16 24 31
46 34 49 7 6 52 100 74 153 28 69 48 190 47 292 -1 205 -77 398 -218 555 -111
123 -274 215 -458 257 -44 10 -237 18 -245 10z"/>
<path d="M3399 5346 c-2 -3 -23 -7 -45 -10 -59 -7 -187 -51 -253 -88 -427
-236 -563 -780 -297 -1187 150 -229 397 -367 673 -376 225 -6 442 78 601 235
95 93 153 180 200 300 42 108 53 175 53 308 -1 294 -167 573 -424 716 -54 30
-167 77 -167 70 0 -3 -8 0 -17 5 -10 5 -34 12 -53 16 -43 8 -265 17 -271 11z"/>
<path d="M5785 5343 c-184 -41 -269 -76 -380 -158 -364 -268 -446 -780 -184
-1150 15 -22 50 -63 76 -91 319 -339 856 -347 1188 -19 257 255 320 637 158
963 -79 160 -211 293 -363 368 -105 52 -105 52 -225 81 -27 7 -245 12 -270 6z"/>
<path d="M2229 3296 c-2 -2 -22 -6 -44 -9 -64 -10 -145 -36 -220 -74 -71 -35
-194 -123 -230 -165 -51 -58 -115 -144 -115 -155 0 -6 -3 -13 -7 -15 -5 -1
-18 -23 -30 -48 -173 -359 -64 -797 259 -1035 169 -125 408 -183 625 -151 252
36 497 219 612 454 160 327 93 717 -167 966 -158 151 -335 225 -558 232 -66 3
-122 2 -125 0z"/>
<path d="M4610 3293 c-314 -53 -569 -270 -669 -569 -31 -92 -40 -167 -37 -289
15 -517 505 -895 1012 -781 478 108 762 610 608 1074 -60 182 -174 328 -340
437 -46 30 -87 55 -92 55 -5 0 -23 7 -40 16 -73 36 -176 56 -297 59 -66 1
-131 0 -145 -2z"/>
</g>
</svg>
